<?xml version="1.0" encoding="utf-8"?>
<!-- Generator: Adobe Illustrator 19.0.1, SVG Export Plug-In . SVG Version: 6.00 Build 0)  -->
<svg version="1.1" id="Layer_1" xmlns="http://www.w3.org/2000/svg" xmlns:xlink="http://www.w3.org/1999/xlink" x="0px" y="0px"
	 viewBox="0 0 129.4 41.2" style="enable-background:new 0 0 129.4 41.2;" xml:space="preserve">
<style type="text/css">
	.st0{clip-path:url(#SVGID_2_);fill:#FFFFFF;}
</style>
<g>
	<defs>
		<rect id="SVGID_1_" y="0" width="129.4" height="41.2"/>
	</defs>
	<clipPath id="SVGID_2_">
		<use xlink:href="#SVGID_1_"  style="overflow:visible;"/>
	</clipPath>
	<path class="st0" d="M42.4,22.4v3.8H30.7V4.4h4.2v18H42.4z M44.7,7.9c0-1.3,1-2.3,2.3-2.3c1.2,0,2.3,1,2.3,2.3
		c0,1.3-1.1,2.3-2.3,2.3C45.7,10.2,44.7,9.2,44.7,7.9 M44.9,12.6H49v13.7h-4.1V12.6z M68.1,19.4c0,4.2-3,7.2-6.6,7.2
		c-2.2,0-3.6-0.9-4.5-2.2l-0.1,1.9h-3.8V4.4h4.1v9.8c0.9-1.1,2.3-1.9,4.3-1.9C65,12.2,68.1,15.2,68.1,19.4 M63.9,19.4
		c0-2-1.5-3.6-3.5-3.6c-2,0-3.5,1.6-3.5,3.6c0,2,1.6,3.6,3.5,3.6C62.4,23,63.9,21.4,63.9,19.4 M84.1,20.2H73.9
		c0.3,2,1.6,3.1,3.3,3.1c1.3,0,2.5-0.6,3.2-1.8l3.2,1.3c-1.1,2.3-3.4,3.7-6.4,3.7c-4.5,0-7.4-3.1-7.4-7.1c0-4,3-7.1,7.3-7.1
		c4,0,7,2.7,7,7V20.2z M74.1,17.6h5.8c-0.4-1.4-1.3-2.1-2.8-2.1C75.6,15.4,74.5,16.2,74.1,17.6 M86.9,4.4H91v21.8h-4.1V4.4z
		 M95.1,4.4h4.1v21.8h-4.1V4.4z M102.9,21v-8.5h4.1v8.1c0,1.5,0.9,2.3,2.2,2.3c1.3,0,2.2-0.8,2.2-2.3v-8.1h4.1V21
		c0,3.4-2.3,5.5-6.3,5.5C105.1,26.5,102.9,24.4,102.9,21 M117.7,24.8l1.7-2.8c1.1,0.8,2.9,1.5,4.3,1.5c1.2,0,1.9-0.5,1.9-1.3
		c0-1-1.4-1.1-3.3-1.7c-2-0.6-4.1-1.4-4.1-4c0-2.9,2.7-4.2,5.7-4.2c1.9,0,3.8,0.5,5.2,1.4l-1.7,2.5c-1.1-0.6-2.6-1.1-3.8-1.1
		c-1,0-1.6,0.4-1.6,1c0,1,1.5,1.2,3.2,1.7c2.6,0.6,4.3,1.6,4.3,4.2c0,3-2.3,4.6-5.7,4.6C121.1,26.5,118.9,25.6,117.7,24.8 M24.7,6.9
		c0-3.8-3.1-6.9-6.9-6.9L4.6,0v1.5l13.3,0c2.9,0,5.3,2.4,5.3,5.3v22.1h1.5V6.9z M37.8,41.2H12.2c-2.5,0-4.6-2-4.6-4.6v-32h1.5v32
		c0,1.7,1.4,3,3,3s3-1.4,3-3c0-1.7-1.4-3-3-3V32h25.6c2.5,0,4.6,2,4.6,4.6C42.4,39.1,40.3,41.2,37.8,41.2 M4.6,7.6c-1.7,0-3-1.4-3-3
		c0-1.7,1.4-3,3-3c1.7,0,3,1.4,3,3h1.5C9.1,2,7.1,0,4.6,0C2,0,0,2,0,4.6c0,2.5,2,4.6,4.6,4.6V7.6z M18.8,9.7h-6.5v1.5h6.5V9.7z
		 M20.3,14.3h-8.1v1.5h8.1V14.3z M18.8,18.9h-6.5v1.5h6.5V18.9z M17.3,23.4h-5v1.5h5V23.4z"/>
</g>
</svg>
